<svg width="37" height="45" viewBox="0 0 37 45" xmlns="http://www.w3.org/2000/svg">
<path d="M36.43 18.2599V29.7999C36.43 32.6099 33.03 34.6799 27.55 36.0099V44.14H24.74V40.14H23V44.14H19.45V40.14H17.82V44.14H14.28V40.14H12.65V44.14H9.65002V35.9999C4.18002 34.6699 0.780029 32.5999 0.780029 29.7899V18.2599C0.78003 13.5338 2.65743 9.0012 5.99933 5.6593C9.34123 2.3174 13.8738 0.439941 18.6 0.439941C23.3261 0.439941 27.8587 2.3174 31.2006 5.6593C34.5425 9.0012 36.42 13.5338 36.42 18.2599H36.43ZM15.28 26.0999C15.2374 24.7025 14.6632 23.374 13.6746 22.3854C12.686 21.3968 11.3575 20.8226 9.96002 20.78C8.86595 20.7504 7.78814 21.0496 6.86597 21.639C5.94379 22.2285 5.21965 23.0811 4.78717 24.0865C4.35469 25.0919 4.23375 26.2039 4.44 27.2787C4.64626 28.3536 5.17024 29.3419 5.94415 30.1158C6.71806 30.8897 7.70633 31.4137 8.78119 31.6199C9.85605 31.8262 10.968 31.7052 11.9734 31.2728C12.9789 30.8403 13.8314 30.1161 14.4209 29.194C15.0104 28.2718 15.3096 27.194 15.28 26.0999ZM21.34 35.8599L20 31.9999L18.67 27.9999L17.34 31.9999L15.86 35.84H21.33L21.34 35.8599ZM32.73 26.0999C32.7093 24.6954 32.1422 23.3542 31.149 22.361C30.1557 21.3677 28.8145 20.8006 27.41 20.78C25.9886 20.7919 24.6267 21.3517 23.6078 22.3427C22.5888 23.3337 21.9915 24.6795 21.94 26.0999C21.9292 27.5679 22.4973 28.981 23.5212 30.033C24.5451 31.0849 25.9423 31.691 27.41 31.7199C28.1288 31.7018 28.837 31.5419 29.4938 31.2493C30.1507 30.9568 30.7433 30.5374 31.2376 30.0152C31.7319 29.493 32.1182 28.8783 32.3743 28.2064C32.6304 27.5345 32.7513 26.8186 32.73 26.0999Z" fill="#FF0000"/>
</svg>
